# xmcd
#
# Track frame offsets: 
#        183
#        16825
#        32400
#        49675
#        74193
#
# Disc length: 1291 seconds
#
# Revision: 0
# Processed by: cddbd v1.4PL0 Copyright (c) Steve Scherf et al.
# Submitted via: ExactAudioCopy v0.90b4
#
DISCID=3b050905
DTITLE=Chemical Plant - World Is Bankrupt
DYEAR=1992
DGENRE=Noise
TTITLE0=Suffer In Silence
TTITLE1=World Is Bankrupt
TTITLE2=Teledisc
TTITLE3=Get The World Outta My Head
TTITLE4=7.43
EXTD=
EXTT0=
EXTT1=
EXTT2=
EXTT3=
EXTT4=
PLAYORDER=
